<?xml version="1.0"?>
<svg xmlns="http://www.w3.org/2000/svg" width="271" height="52" viewBox="0 0 271 52" fill="none">
<path d="M57.3523 38.3979H72.9615V41.5653H57.3523V38.3979ZM250.46 38.3979H266.001V41.5653H250.46V38.3979Z" fill="#FFB800"/>
<path d="M67.2666 21.1508C68.2685 21.1707 69.2606 20.952 70.1615 20.5129C71.0618 20.0738 71.8456 19.4269 72.4471 18.6253L75.2316 21.4746C73.0299 23.9353 70.5044 25.1657 67.5257 25.1657C66.1814 25.217 64.8406 24.9968 63.5833 24.5184C62.326 24.04 61.178 23.3131 60.2083 22.3812C59.2633 21.4712 58.5215 20.3722 58.0304 19.156C57.5393 17.9397 57.3108 16.6336 57.359 15.3228C57.3217 13.998 57.5621 12.6802 58.0641 11.4536C58.5656 10.2269 59.318 9.11852 60.273 8.19968C61.2998 7.23073 62.5125 6.4799 63.8377 5.99252C65.1628 5.50514 66.573 5.2913 67.9831 5.36393C69.3927 5.43655 70.7738 5.79412 72.0415 6.41506C73.3097 7.03598 74.4389 7.90741 75.3611 8.97675L72.7061 12.0203C72.1207 11.2328 71.3592 10.5938 70.4816 10.1551C69.604 9.71642 68.6358 9.49022 67.6552 9.4948C66.1259 9.46538 64.6432 10.0213 63.5108 11.0489C62.9228 11.5889 62.4612 12.2519 62.1592 12.9906C61.8567 13.7294 61.7215 14.5257 61.7624 15.3228C61.7215 16.1183 61.8437 16.9136 62.1224 17.6598C62.4007 18.4061 62.8291 19.0874 63.3813 19.6614C64.4464 20.6228 65.8311 21.1537 67.2666 21.1508V21.1508ZM78.5984 24.9066V5.67419H82.8722V21.086H91.0962V24.9066H78.5984ZM109.875 22.2517C107.93 24.0821 105.359 25.1012 102.687 25.1012C100.016 25.1012 97.4454 24.0821 95.4996 22.2517C94.5509 21.3415 93.8019 20.2441 93.3 19.0291C92.7985 17.8139 92.555 16.5076 92.5856 15.1933C92.5493 13.8782 92.7897 12.5701 93.2917 11.354C93.7936 10.138 94.5459 9.04117 95.4996 8.13493C97.4454 6.30454 100.016 5.2854 102.687 5.2854C105.359 5.2854 107.93 6.30454 109.875 8.13493C110.824 9.04476 111.573 10.1423 112.075 11.3575C112.577 12.5727 112.82 13.879 112.789 15.1933C112.826 16.5084 112.586 17.8165 112.084 19.0326C111.582 20.2486 110.829 21.3454 109.875 22.2517ZM108.386 15.1933C108.398 13.5661 107.797 11.994 106.702 10.7899C106.187 10.2194 105.558 9.76327 104.855 9.45103C104.152 9.13885 103.392 8.97755 102.623 8.97755C101.854 8.97755 101.093 9.13885 100.391 9.45103C99.6881 9.76313 99.0586 10.2192 98.5431 10.7899C97.4366 11.9864 96.833 13.5635 96.8595 15.1933C96.8475 16.8205 97.4485 18.3926 98.5431 19.5967C99.0586 20.1673 99.688 20.6234 100.391 20.9356C101.093 21.2477 101.854 21.4091 102.623 21.4091C103.392 21.4091 104.152 21.2477 104.855 20.9356C105.557 20.6234 106.187 20.1673 106.702 19.5967C107.263 19.0126 107.701 18.3219 107.991 17.5656C108.28 16.8092 108.414 16.0026 108.386 15.1933ZM121.531 19.9852C121.873 20.4281 122.316 20.7826 122.823 21.0192C123.33 21.2558 123.886 21.3675 124.445 21.345C124.996 21.3742 125.545 21.2651 126.043 21.0276C126.541 20.79 126.971 20.4317 127.295 19.9852C128.039 18.9274 128.403 17.6497 128.331 16.3588V5.73888H132.605V16.4883C132.605 19.2728 131.828 21.4098 130.273 22.8992C129.491 23.6494 128.567 24.2363 127.555 24.6254C126.543 25.0146 125.464 25.1982 124.381 25.1656C123.288 25.1982 122.199 25.0149 121.176 24.6259C120.154 24.2369 119.218 23.6502 118.423 22.8992C116.869 21.4098 116.092 19.2728 116.092 16.4883V5.73888H120.366V16.3588C120.365 17.6599 120.772 18.9285 121.531 19.9852ZM151.772 8.19966C153.585 9.88331 154.557 12.2145 154.557 15.1933C154.557 18.172 153.65 20.568 151.902 22.3164C150.153 24.0648 147.369 24.9066 143.743 24.9066H137.073V5.67419H143.872C147.304 5.67419 149.959 6.51601 151.772 8.19966V8.19966ZM148.664 19.6614C149.7 18.6901 150.218 17.2007 150.218 15.3228C150.218 13.4449 149.7 11.9555 148.664 10.9842C147.628 10.0128 146.009 9.43002 143.807 9.43002H141.411V21.1508H144.131C145.775 21.2384 147.392 20.707 148.664 19.6614ZM178.97 5.67419H183.244V24.9066H178.97L169.774 12.8621V24.9066H165.501V5.67419H169.515L178.97 18.0425V5.67419V5.67419ZM201.699 24.9066L199.886 20.7623H191.791L189.978 24.9066H185.38L193.669 5.67419H197.814L206.102 24.9066H201.699ZM195.936 11.4375L193.54 17.0064H198.332L195.936 11.4375ZM215.298 9.42996V24.9713H211.024V9.42996H205.584V5.73888H220.802V9.42996H215.298V9.42996ZM223.845 5.67419H228.119V24.9066H223.845V5.67419V5.67419ZM239.97 17.913L244.891 5.67419H249.553L241.847 24.9066H238.221L230.515 5.67419H235.178L239.97 17.913V17.913ZM265.678 5.67419V9.49477H256.094V13.4449H264.706V17.136H256.094V21.1508H266.001V24.9714H251.82V5.73894H265.678V5.67419V5.67419ZM11.123 32.8908H5.23022V46.729H19.0232V40.778H11.123V32.8908V32.8908ZM40.7811 32.9555V40.778H32.8809V46.729H46.6739V32.8908H40.7163L40.7811 32.9555ZM5.23022 19.1237H11.1877L11.123 19.0589V11.2364H19.0232V5.2854H5.23022V19.1237ZM32.8809 5.2854V11.2364H40.7811V19.1237H46.6739V5.2854H32.8809V5.2854Z" fill="black"/>
<path opacity="0.65" d="M32.1038 19.1237L24.2036 11.2364H32.8809V5.2854H19.0232V11.2364L26.9234 19.1237H32.1038ZM24.9807 32.8908H19.8002L26.3406 39.4246L27.6357 40.778H19.0232V46.729H32.8809V40.7132L28.9308 36.8279L24.9807 32.8908V32.8908ZM40.7811 19.1237V27.7232L39.4212 26.3634L32.8809 19.8295V25.0683L36.7662 28.9536L40.7163 32.8972H46.6739V19.1237H40.7811ZM19.0232 26.9462L11.1877 19.1237H5.23022V32.8908H11.123V24.2912L19.0232 32.1849V26.9462V26.9462Z" fill="black"/>
<path d="M82.3862 44.462C83.8828 44.462 85.2396 43.8186 86.1907 42.7975L84.4563 41.2589C83.9528 41.8884 83.2115 42.294 82.3862 42.294C80.9176 42.294 79.6727 41.0072 79.6727 39.4826C79.6727 37.9719 80.9176 36.6851 82.3862 36.6851C83.1975 36.6851 83.9528 37.0907 84.4423 37.7202L86.1907 36.1676C85.2396 35.1605 83.8828 34.5171 82.3862 34.5171C79.5748 34.5171 77.2109 36.783 77.2109 39.4826C77.2109 42.1821 79.5748 44.462 82.3862 44.462V44.462ZM93.0978 44.462C95.8953 44.462 98.2591 42.1821 98.2591 39.4826C98.2591 36.783 95.8953 34.5171 93.0978 34.5171C90.2864 34.5171 87.9226 36.783 87.9226 39.4826C87.9226 42.1821 90.2864 44.462 93.0978 44.462ZM93.0978 42.294C91.6292 42.294 90.3843 41.0072 90.3843 39.4826C90.3843 37.9719 91.6292 36.6851 93.0978 36.6851C94.5665 36.6851 95.7974 37.9719 95.7974 39.4826C95.7974 41.0072 94.5665 42.294 93.0978 42.294V42.294ZM100.695 44.2942H103.087V38.7272L105.857 43.7347L108.626 38.7272V44.2942H111.018V34.6849H108.626L105.857 39.6924L103.087 34.6849H100.695V44.2942ZM113.962 44.2942H116.353V38.7272L119.123 43.7347L121.892 38.7272V44.2942H124.284V34.6849H121.892L119.123 39.6924L116.353 34.6849H113.962V44.2942ZM131.48 44.462C134.109 44.462 135.942 42.6577 135.942 40.084V34.6849H133.564V39.9721C133.564 41.3289 132.697 42.294 131.48 42.294C130.277 42.294 129.41 41.3289 129.41 39.9721V34.6849H127.018V40.084C127.018 42.6577 128.864 44.462 131.48 44.462V44.462ZM138.677 44.2942H141.069V38.6153L145.265 44.2942H147.643V34.6849H145.265V40.3638L141.069 34.6849H138.677V44.2942ZM150.591 44.2942H152.982V34.6849H150.591V44.2942ZM158.187 44.2942H160.578V36.825H163.502V34.6849H155.277V36.825H158.187V44.2942ZM168.736 44.2942H171.142V40.9792L174.863 34.6849H172.205L169.939 38.7412L167.771 34.6849H165.016L168.736 40.9792V44.2942V44.2942ZM185.765 40.5875H187.807V41.7905C187.332 42.1122 186.772 42.294 186.213 42.294C184.716 42.294 183.443 41.0072 183.443 39.4826C183.443 37.9719 184.716 36.6851 186.213 36.6851C187.038 36.6851 187.863 37.0768 188.381 37.7202L190.129 36.1676C189.164 35.1325 187.682 34.5171 186.213 34.5171C183.373 34.5171 180.982 36.783 180.982 39.4826C180.982 42.1821 183.373 44.462 186.213 44.462C187.682 44.462 189.164 43.8466 190.129 42.7975V38.7832H185.765V40.5875V40.5875ZM200.898 44.2942L198.619 41.0631C199.975 40.5876 200.843 39.4546 200.843 37.9859C200.843 36.0417 199.318 34.6849 197.192 34.6849H192.73V44.2942H195.122V41.2869H196.073L198.185 44.2942H200.898ZM195.122 36.8669H196.982C197.807 36.8669 198.381 37.3145 198.381 37.9859C198.381 38.6573 197.807 39.1049 196.982 39.1049H195.122V36.8669V36.8669ZM208.003 44.462C210.801 44.462 213.165 42.1821 213.165 39.4826C213.165 36.783 210.801 34.5171 208.003 34.5171C205.192 34.5171 202.828 36.783 202.828 39.4826C202.828 42.1821 205.192 44.462 208.003 44.462ZM208.003 42.294C206.535 42.294 205.29 41.0072 205.29 39.4826C205.29 37.9719 206.535 36.6851 208.003 36.6851C209.472 36.6851 210.703 37.9719 210.703 39.4826C210.703 41.0072 209.472 42.294 208.003 42.294V42.294ZM219.853 44.462C222.483 44.462 224.315 42.6577 224.315 40.084V34.6849H221.937V39.9721C221.937 41.3289 221.07 42.294 219.853 42.294C218.65 42.294 217.783 41.3289 217.783 39.9721V34.6849H215.391V40.084C215.391 42.6577 217.238 44.462 219.853 44.462V44.462ZM227.05 44.2942H229.442V41.2869H231.512C233.638 41.2869 235.163 39.9301 235.163 37.9859C235.163 36.0417 233.638 34.6849 231.512 34.6849H227.05V44.2942ZM229.442 39.1049V36.8669H231.303C232.128 36.8669 232.701 37.3145 232.701 37.9859C232.701 38.6573 232.128 39.1049 231.303 39.1049H229.442ZM241.293 44.462C243.67 44.462 245.139 43.2591 245.139 41.3289C245.139 39.5245 243.754 38.9091 241.6 38.4475C240.174 38.1398 239.712 37.944 239.712 37.3565C239.712 36.8809 240.146 36.5173 240.915 36.5173C241.81 36.5173 242.775 36.8669 243.656 37.5383L244.873 35.8319C243.852 34.9927 242.593 34.5171 240.971 34.5171C238.789 34.5171 237.306 35.748 237.306 37.5943C237.306 39.5245 238.831 40.084 240.887 40.5456C242.286 40.8813 242.733 41.0072 242.733 41.5806C242.733 42.0982 242.272 42.4618 241.376 42.4618C240.202 42.4618 239.152 42.0142 238.215 41.2449L236.859 42.8535C238.034 43.9025 239.586 44.462 241.293 44.462V44.462Z" fill="black"/>
</svg>
